#!OML:ASF H:\ManfredETheater\Project 1\Capture day 1\Session 1\subject.ASF
:FULLY-SPECIFIED
:DEGREES
82
root -1.05276 15.7276 -3.1287 -189.068 -53.9953 -148.909
lowerback 14.2588 0.300332 9.56639
upperback -0.249742 2.10171 4.81606
thorax -8.14994 0.596977 -0.630424
lowerneck -17.5104 -4.2652 -4.17103
upperneck 9.52436 -5.13622 2.79406
head 5.90332 -2.43528 1.0392
rclavicle -6.06293e-014 -5.36719e-014
rhumerus -57.5218 6.96982 -83.9685
rradius 71.3245
rwrist -12.3584
rhand -28.3657 8.20718
rfingers 7.12502
rthumb -1.73907 -21.7655
lclavicle -6.06293e-014 -5.36719e-014
lhumerus -48.004 -5.72902 101.876
lradius 109.83
lwrist 10.33
lhand -19.7857 -12.3438
lfingers 7.12502
lthumb 6.54669 17.535
rfemur -8.43148 -14.7837 26.3327
rtibia 74.0115
rfoot 12.2045 -12.1259
rtoes -28.9107
lfemur -49.5052 9.53115 -31.0733
ltibia 69.6656
lfoot -17.1602 -13.1722
ltoes 40.6491
83
root -1.29784 15.6799 -3.57079 -188.402 -55.1497 -149.937
lowerback 14.2957 0.109688 8.5404
upperback -0.341132 1.71119 4.56556
thorax -8.32097 0.456694 -0.253406
lowerneck -17.3974 -4.2429 -4.22373
upperneck 9.49757 -5.13337 3.05266
head 5.88527 -2.41634 1.13226
rclavicle -8.34896e-015 -3.37934e-014
rhumerus -58.0719 5.80254 -83.6679
rradius 68.6542
rwrist -12.8701
rhand -28.5746 7.56039
rfingers 7.12502
rthumb -1.94085 -22.4105
lclavicle -8.34896e-015 -3.37934e-014
lhumerus -46.4994 -5.26235 102.428
lradius 109.952
lwrist 10.1158
lhand -20.0044 -12.2977
lfingers 7.12502
lthumb 6.33554 17.5876
rfemur -11.4992 -15.8806 24.3495
rtibia 77.8693
rfoot 10.4987 -13.3483
rtoes -28.1732
lfemur -46.9527 8.86727 -31.2155
ltibia 69.6411
lfoot -20.4539 -11.3107
ltoes 39.6577
84
root -1.53673 15.6303 -4.00684 -187.368 -56.381 -151.321
lowerback 14.3473 -0.0879028 7.36961
upperback -0.439837 1.28377 4.26766
thorax -8.50107 0.30631 0.165709
lowerneck -17.3166 -4.23582 -4.29617
upperneck 9.39725 -5.14982 3.35285
head 5.85144 -2.40477 1.23957
rclavicle -5.80451e-014 2.06736e-014
rhumerus -58.6179 4.42604 -83.1821
rradius 66.1672
rwrist -13.3002
rhand -28.8887 6.91881
rfingers 7.12502
rthumb -2.24425 -23.0491
lclavicle -5.80451e-014 2.06736e-014
lhumerus -45.0286 -5.07693 102.979
lradius 110.31
lwrist 10.0097
lhand -20.257 -12.2383
lfingers 7.12502
lthumb 6.09175 17.6541
rfemur -14.8353 -16.8931 22.199
rtibia 81.4606
rfoot 8.71622 -14.2878
rtoes -27.4766
lfemur -44.5531 7.94463 -31.3944
ltibia 69.5955
lfoot -23.3813 -9.88588
ltoes 38.4036
85
root -1.77043 15.5793 -4.43753 -186.066 -57.6252 -152.96
lowerback 14.423 -0.286589 6.15357
upperback -0.527653 0.839467 3.94298
thorax -8.6706 0.150831 0.590248
lowerneck -17.2711 -4.24632 -4.40256
upperneck 9.22652 -5.18368 3.68587
head 5.80356 -2.40098 1.36068
rclavicle 4.11484e-014 -3.10104e-014
rhumerus -59.2005 2.88008 -82.5253
rradius 63.9694
rwrist -13.6621
rhand -29.3176 6.31391
rfingers 7.12502
rthumb -2.65841 -23.6493
lclavicle 4.11484e-014 -3.10104e-014
lhumerus -43.6102 -5.20882 103.5
lradius 110.905
lwrist 10.0531
lhand -20.5196 -12.1742
lfingers 7.12502
lthumb 5.83816 17.7254
rfemur -18.3895 -17.7757 19.9823
rtibia 84.7064
rfoot 6.89612 -14.9679
rtoes -26.8971
lfemur -42.2949 6.84864 -31.5485
ltibia 69.5515
lfoot -25.9314 -8.87782
ltoes 37.1106
86
root -2.00124 15.5276 -4.86425 -184.638 -58.8002 -154.714
lowerback 14.5198 -0.470221 4.98714
upperback -0.588135 0.41295 3.62181
thorax -8.80824 0.00212495 0.99176
lowerneck -17.2488 -4.27191 -4.52923
upperneck 8.98455 -5.22823 4.00366
head 5.73758 -2.40516 1.47901
rclavicle 1.96797e-014 5.56597e-015
rhumerus -59.8578 1.22845 -81.723
rradius 62.1523
rwrist -13.9573
rhand -29.8859 5.79243
rfingers 7.12502
rthumb -3.20723 -24.1632
lclavicle 1.96797e-014 5.56597e-015
lhumerus -42.2552 -5.66255 103.964
lradius 111.711
lwrist 10.2669
lhand -20.7575 -12.1028
lfingers 7.12502
lthumb 5.60849 17.803
rfemur -22.0965 -18.472 17.8083
rtibia 87.5206
rfoot 5.08634 -15.4346
rtoes -26.517
lfemur -40.1366 5.69599 -31.6029
ltibia 69.5183
lfoot -28.1656 -8.21167
ltoes 35.772
87
root -2.23337 15.4773 -5.28823 -183.219 -59.8363 -156.46
lowerback 14.635 -0.632201 3.93562
upperback -0.61129 0.0245894 3.32581
thorax -8.90357 -0.133775 1.35099
lowerneck -17.2471 -4.29956 -4.67745
upperneck 8.70284 -5.26354 4.28667
head 5.66175 -2.40887 1.59047
rclavicle 2.0276e-014 3.4191e-014
rhumerus -60.6138 -0.437457 -80.8266
rradius 60.7835
rwrist -14.1991
rhand -30.5216 5.39064
rfingers 7.12502
rthumb -3.82118 -24.5548
lclavicle 2.0276e-014 3.4191e-014
lhumerus -40.9954 -6.39977 104.335
lradius 112.695
lwrist 10.6304
lhand -20.9573 -12.0417
lfingers 7.12502
lthumb 5.41553 17.8691
rfemur -25.8761 -18.9271 15.7533
rtibia 89.8132
rfoot 3.34005 -15.7479
rtoes -26.4303
lfemur -38.0253 4.60521 -31.5162
ltibia 69.4665
lfoot -30.0669 -7.82645
ltoes 34.512
88
root -2.4729 15.4321 -5.71088 -181.938 -60.6906 -158.073
lowerback 14.7498 -0.770129 3.05612
upperback -0.599717 -0.310844 3.06707
thorax -8.9525 -0.253094 1.64375
lowerneck -17.2566 -4.31562 -4.82233
upperneck 8.42036 -5.27359 4.4993
head 5.58435 -2.40566 1.6814
rclavicle -5.60573e-014 -2.8625e-014
rhumerus -61.4799 -2.01925 -79.9065
rradius 59.8907
rwrist -14.3994
rhand -31.1625 5.13292
rfingers 7.12502
rthumb -4.44005 -24.8005
lclavicle -5.60573e-014 -2.8625e-014
lhumerus -39.8631 -7.35126 104.567
lradius 113.816
lwrist 11.0723
lhand -21.0765 -11.9914
lfingers 7.12502
lthumb 5.30048 17.9223
rfemur -29.6333 -19.1131 13.8743
rtibia 91.4909
rfoot 1.7103 -15.9499
rtoes -26.7118
lfemur -35.8891 3.65545 -31.2554
ltibia 69.3382
lfoot -31.6653 -7.66433
ltoes 33.161
89
root -2.72492 15.3963 -6.13308 -180.802 -61.3326 -159.545
lowerback 14.8264 -0.8772 2.30896
upperback -0.558641 -0.588778 2.85398
thorax -8.94275 -0.351878 1.89833
lowerneck -17.2611 -4.29963 -4.92914
upperneck 8.16102 -5.23428 4.59453
head 5.5067 -2.38575 1.73403
rclavicle -1.13307e-014 2.14687e-014
rhumerus -62.428 -3.40828 -79.0209
rradius 59.4606
rwrist -14.5807
rhand -31.7183 5.04056
rfingers 7.12502
rthumb -4.97676 -24.881
lclavicle -1.13307e-014 2.14687e-014
lhumerus -38.8838 -8.42511 104.639
lradius 115.03
lwrist 11.5104
lhand -21.116 -11.9718
lfingers 7.12502
lthumb 5.26231 17.9429
rfemur -33.3097 -19.0173 12.169
rtibia 92.4864
rfoot 0.272901 -16.0725
rtoes -27.2999
lfemur -33.6658 2.89585 -30.8577
ltibia 69.0478
lfoot -32.934 -7.63812
ltoes 31.6107
90
root -2.99545 15.3771 -6.55541 -179.786 -61.7633 -160.9
lowerback 14.8342 -0.959254 1.65736
upperback -0.501648 -0.820771 2.67878
thorax -8.87366 -0.434145 2.1281
lowerneck -17.2596 -4.23692 -4.97836
upperneck 7.96143 -5.13078 4.56391
head 5.43863 -2.34124 1.74393
rclavicle 4.90998e-014 -1.43125e-014
rhumerus -63.4222 -4.53599 -78.2388
rradius 59.4466
rwrist -14.7387
rhand -32.1254 5.10913
rfingers 7.12502
rthumb -5.36984 -24.8028
lclavicle 4.90998e-014 -1.43125e-014
lhumerus -38.0818 -9.51948 104.531
lradius 116.298
lwrist 11.8441
lhand -21.0817 -11.9848
lfingers 7.12502
lthumb 5.2955 17.9291
rfemur -36.827 -18.6788 10.6169
rtibia 92.7379
rfoot -0.927557 -16.1467
rtoes -28.1167
lfemur -31.2978 2.31546 -30.3692
ltibia 68.5044
lfoot -33.8302 -7.69934
ltoes 29.7559
91
root -3.28824 15.3789 -6.97759 -178.829 -62.013 -162.193
lowerback 14.751 -1.03133 1.05636
upperback -0.445777 -1.03179 2.53395
thorax -8.75174 -0.509803 2.35483
lowerneck -17.2445 -4.11502 -4.9591
upperneck 7.84654 -4.95008 4.40785
head 5.38626 -2.26506 1.71075
rclavicle -1.66979e-014 2.78299e-014
rhumerus -64.4175 -5.3463 -77.6012
rradius 59.7779
rwrist -14.8913
rhand -32.3247 5.31726
rfingers 7.12502
rthumb -5.5622 -24.5897
lclavicle -1.66979e-014 2.78299e-014
lhumerus -37.4759 -10.5309 104.244
lradius 117.582
lwrist 11.9812
lhand -20.9852 -12.0241
lfingers 7.12502
lthumb 5.38864 17.8874
rfemur -40.112 -18.1789 9.18312
rtibia 92.2235
rfoot -1.87992 -16.183
rtoes -29.0401
lfemur -28.7552 1.85639 -29.8554
ltibia 67.6388
lfoot -34.3077 -7.74675
ltoes 27.4027
92
root -3.60243 15.4006 -7.39995 -177.924 -62.129 -163.45
lowerback 14.6043 -1.11132 0.481522
upperback -0.402524 -1.24675 2.41392
thorax -8.6045 -0.589594 2.59221
lowerneck -17.2032 -3.92885 -4.86234
upperneck 7.82464 -4.68955 4.13842
head 5.35097 -2.15486 1.63715
rclavicle -5.78463e-014 2.54444e-014
rhumerus -65.3821 -5.83519 -77.1294
rradius 60.3746
rwrist -15.02
rhand -32.3035 5.62472
rfingers 7.12502
rthumb -5.54172 -24.2828
lclavicle -5.78463e-014 2.54444e-014
lhumerus -37.077 -11.3783 103.801
lradius 118.843
lwrist 11.8844
lhand -20.8386 -12.0884
lfingers 7.12502
lthumb 5.53017 17.8194
rfemur -43.0913 -17.6057 7.85651
rtibia 90.9725
rfoot -2.59248 -16.2071
rtoes -29.9988
lfemur -26.0238 1.45693 -29.3501
ltibia 66.4322
lfoot -34.3147 -7.79059
ltoes 24.5427
